<svg width="26" height="26" fill="none" xmlns="http://www.w3.org/2000/svg"><g clip-path="url(#clip0_68_361)" fill="#2B3350"><path d="M22.2 7.029a1 1 0 000-1.732L13.527.289a1 1 0 00-1 0L3.852 5.297a1 1 0 000 1.732l8.674 5.008a1 1 0 001 0L22.2 7.03zm-8.4 17.239a1 1 0 001.5.866l8.678-5.01a1 1 0 00.5-.866v-9.094a1 1 0 00-1.5-.866l-8.677 5.01a1 1 0 00-.5.866v9.094zM3.074 9.298a1 1 0 00-1.5.866v9.094a1 1 0 00.5.866l8.677 5.01a1 1 0 001.5-.866v-9.094a1 1 0 00-.5-.866l-8.677-5.01z"/></g><defs><clipPath id="clip0_68_361"><path fill="#fff" d="M0 0h26v26H0z"/></clipPath></defs></svg>